<?xml version="1.0" standalone="no"?>
<!DOCTYPE svg PUBLIC "-//W3C//DTD SVG 20010904//EN"
 "http://www.w3.org/TR/2001/REC-SVG-20010904/DTD/svg10.dtd">
<svg version="1.0" xmlns="http://www.w3.org/2000/svg"
 width="2432.000000pt" height="2432.000000pt" viewBox="0 0 2432.000000 2432.000000"
 preserveAspectRatio="xMidYMid meet">
<metadata>
Created by potrace 1.14, written by Peter Selinger 2001-2017
</metadata>
<g transform="translate(0.000000,2432.000000) scale(0.100000,-0.100000)"
fill="#000000" stroke="none">
<path d="M0 12160 l0 -3520 5363 1 5362 0 45 60 c25 33 54 70 65 82 11 13 31
38 45 56 14 18 30 38 35 44 6 7 28 35 50 62 22 28 42 52 46 55 3 3 18 23 35
45 28 38 58 75 79 99 6 6 26 31 45 56 42 54 61 78 75 94 6 6 26 31 45 56 19
25 40 52 47 60 59 71 84 101 113 140 19 25 42 54 52 65 9 11 60 74 113 140 53
66 101 127 108 135 7 9 57 72 111 140 55 69 102 127 105 130 3 3 25 30 48 60
23 30 58 73 77 95 20 22 36 43 36 47 0 4 6 13 13 20 20 22 70 81 102 122 30
39 123 154 153 191 10 11 42 52 72 90 30 39 59 75 65 81 5 6 21 26 35 44 14
19 35 45 47 59 28 33 32 37 68 86 17 22 33 42 36 45 4 3 30 34 58 70 124 156
155 194 169 209 7 8 21 26 30 40 9 14 27 37 40 51 19 21 64 77 198 245 30 39
128 160 164 205 85 105 133 165 161 203 11 15 23 27 27 27 4 0 7 -789 7 -1753
l0 -1752 5388 -3 5387 -2 0 3520 0 3520 -5389 0 -5389 0 2 -1760 1 -1759 -20
23 c-66 77 -101 121 -109 135 -5 9 -12 18 -16 21 -4 3 -54 64 -111 135 -57 72
-109 137 -116 145 -7 8 -37 47 -68 85 -31 39 -65 80 -76 93 -10 12 -19 24 -19
27 0 3 -8 13 -17 23 -10 10 -29 33 -43 51 -14 18 -30 38 -35 44 -8 9 -142 176
-220 275 -5 7 -22 27 -37 43 -16 16 -28 32 -28 34 0 3 -47 63 -105 135 -58 71
-153 190 -212 263 -58 72 -111 135 -117 139 -6 4 -8 8 -3 8 7 0 -12 23 -70 88
-13 14 -23 28 -23 31 0 3 -14 22 -31 41 -17 19 -43 51 -58 70 -14 19 -28 37
-31 40 -3 3 -36 43 -73 90 -38 47 -83 103 -100 124 -18 22 -43 54 -56 73 -13
18 -28 33 -33 33 -4 0 -8 5 -8 11 0 6 -6 16 -12 24 -18 19 -62 72 -184 225
-60 74 -112 140 -117 145 -4 6 -78 98 -163 205 -86 107 -166 206 -177 220 -12
14 -38 46 -57 70 -19 25 -40 52 -47 60 -6 8 -42 53 -79 100 -38 47 -70 87 -74
90 -3 3 -21 26 -40 52 l-35 47 -5362 1 -5363 0 0 -3520z m4195 1546 c66 -4
134 -8 150 -11 17 -2 46 -6 65 -9 121 -16 297 -60 408 -100 64 -24 217 -98
220 -108 2 -4 9 -8 15 -8 13 0 193 -116 217 -140 3 -3 28 -23 55 -44 90 -71
88 -68 55 -117 -16 -24 -42 -59 -59 -78 -17 -18 -43 -49 -58 -68 -15 -20 -34
-42 -42 -50 -7 -8 -29 -33 -48 -56 -19 -23 -52 -62 -73 -87 -46 -54 -102 -121
-150 -179 -19 -23 -53 -62 -75 -87 l-41 -46 -89 72 c-50 39 -98 77 -108 85 -9
8 -21 15 -26 15 -5 0 -14 7 -21 15 -30 37 -234 124 -321 139 -19 3 -45 8 -59
11 -134 29 -297 22 -415 -16 -69 -23 -147 -59 -157 -74 -4 -5 -8 -6 -8 -2 0
11 -75 -43 -125 -91 -60 -56 -127 -141 -155 -197 -14 -28 -28 -52 -32 -55 -6
-5 -43 -98 -52 -135 -2 -5 -6 -17 -9 -25 -6 -15 -16 -68 -23 -125 -7 -48 -6
-217 0 -255 17 -93 51 -211 78 -265 182 -362 517 -512 978 -440 8 1 22 4 30 7
199 63 258 90 265 120 3 13 4 75 3 138 -3 111 -4 115 -25 115 -12 0 -25 4 -29
7 -4 4 -14 4 -23 0 -9 -4 -54 -6 -101 -5 -47 2 -98 3 -115 2 -118 -5 -223 -3
-242 3 -12 4 -24 4 -27 0 -2 -4 -22 -7 -43 -6 -21 1 -48 3 -60 3 -22 1 -22 3
-21 161 0 88 -2 163 -5 167 -4 3 -4 10 -1 15 3 5 7 109 8 231 l1 222 50 2 c28
1 115 2 195 2 80 0 153 0 163 1 9 0 25 0 35 0 16 1 557 1 592 1 8 0 131 0 272
-1 249 0 258 -1 268 -21 8 -14 12 -227 12 -712 0 -381 -1 -705 -1 -721 -1 -21
-13 -40 -43 -68 -50 -46 -260 -192 -308 -214 -8 -4 -22 -12 -30 -18 -12 -10
-166 -83 -265 -127 -72 -32 -285 -96 -344 -104 -14 -1 -44 -8 -66 -13 -151
-39 -478 -47 -695 -17 -71 10 -94 14 -184 35 -114 26 -324 103 -338 124 -4 6
-8 7 -8 3 0 -7 -57 20 -70 33 -3 3 -18 12 -35 20 -85 43 -264 178 -347 262
-169 173 -293 374 -368 598 -12 36 -25 72 -28 80 -3 8 -6 20 -8 25 -4 16 -42
187 -50 230 -5 22 -8 139 -8 260 1 216 8 281 49 435 3 14 8 32 10 40 2 8 4 16
4 18 1 1 1 3 0 5 0 1 7 18 15 37 8 19 15 38 15 42 5 29 68 172 98 220 13 21
23 41 23 45 0 6 108 173 120 183 3 3 22 27 43 53 74 91 219 228 292 276 22 14
42 29 45 32 16 20 204 125 300 167 44 20 135 52 155 56 6 1 15 4 20 8 9 5 26
10 90 24 6 1 31 7 58 13 26 6 64 14 85 17 20 3 48 7 62 10 14 2 79 7 145 10
66 4 122 8 123 10 2 1 9 1 15 -1 7 -2 66 -6 132 -9z m13859 1 c10 -4 12 -325
12 -1635 -1 -897 -4 -1633 -7 -1637 -6 -6 -889 -8 -895 -2 -4 4 -5 52 -3 169
1 53 -2 101 -6 107 -3 6 -3 11 2 11 4 0 7 24 5 52 -3 73 -2 120 4 129 2 4 1
10 -4 13 -4 2 -5 32 -2 65 3 34 2 61 -3 61 -4 0 -5 5 -1 11 7 13 9 338 1 345
-3 3 -2 18 2 32 3 15 5 41 4 57 -4 38 -4 21 -2 218 1 92 -1 170 -4 173 -3 3
-2 18 2 32 3 15 5 41 4 57 -2 17 -3 37 -3 45 0 8 0 48 0 88 0 40 -2 77 -5 82
-3 5 -1 11 4 14 6 4 6 18 1 35 -4 15 -4 34 0 41 4 6 4 27 0 46 -4 19 -4 36 0
39 5 3 5 18 0 34 -4 16 -6 32 -3 35 8 8 6 192 -2 205 -3 6 -3 11 2 11 4 0 7
24 6 52 -3 48 -3 112 -1 251 1 26 -1 50 -5 53 -3 3 -2 18 2 32 3 15 5 41 4 57
-4 37 -4 14 -2 312 0 138 -1 255 -4 260 -12 20 11 48 44 53 43 6 836 3 853 -3z
m3663 -1 c10 -9 6 -817 -3 -826 -6 -6 -205 -11 -474 -12 l-465 -3 -1 -1200
c-1 -660 -2 -1208 -3 -1217 -1 -17 -30 -18 -451 -18 -353 0 -450 3 -451 13 0
6 -1 550 -1 1208 0 658 -3 1202 -7 1208 -5 7 -146 11 -472 11 l-466 1 0 407
c0 224 3 414 7 422 7 13 171 15 1395 13 763 -1 1389 -4 1392 -7z m-13672 -10
c22 -4 51 -9 65 -11 14 -3 41 -8 60 -11 60 -10 201 -54 295 -91 240 -95 486
-262 649 -442 17 -19 40 -44 51 -55 89 -95 203 -285 272 -452 30 -71 83 -267
89 -329 3 -22 7 -47 10 -55 22 -58 21 -421 -1 -520 -3 -14 -7 -38 -9 -55 -3
-16 -12 -57 -22 -90 -9 -33 -16 -66 -17 -72 0 -7 -5 -13 -10 -13 -6 0 -8 -3
-5 -6 16 -15 -102 -274 -178 -390 -24 -37 -44 -71 -44 -75 0 -5 -3 -9 -7 -9
-5 0 -19 -17 -33 -37 -61 -90 -224 -254 -320 -323 -131 -92 -323 -200 -359
-200 -6 0 -11 -4 -11 -8 0 -5 -6 -9 -12 -9 -7 -1 -58 -17 -114 -36 -55 -19
-113 -38 -130 -41 -16 -3 -58 -12 -94 -20 -65 -14 -112 -21 -225 -33 -104 -11
-373 -5 -441 11 -12 2 -38 7 -58 10 -20 3 -55 11 -78 16 -24 6 -54 13 -68 16
-14 2 -32 7 -40 11 -8 3 -18 7 -22 8 -5 2 -10 4 -13 5 -3 1 -9 3 -14 4 -5 0
-13 4 -17 9 -4 4 -14 7 -22 7 -16 0 -173 61 -182 70 -3 3 -36 20 -75 39 -59
29 -153 85 -190 113 -5 4 -37 28 -71 53 -56 41 -224 198 -224 210 0 5 -39 52
-72 87 -10 10 -18 21 -18 25 0 3 -11 20 -24 38 -40 52 -165 283 -173 320 -1 6
-18 54 -37 108 -19 55 -40 124 -47 155 -7 32 -14 62 -15 67 -38 139 -48 437
-20 581 2 12 7 37 10 55 12 70 17 92 42 172 34 108 39 122 103 252 124 253
287 451 501 611 114 84 272 169 425 227 59 23 229 72 280 81 78 14 94 17 145
22 30 4 57 8 58 9 7 6 417 -2 457 -9z"/>
<path d="M7708 12855 c-1 -1 -28 -5 -58 -8 -30 -3 -65 -8 -77 -11 -13 -3 -31
-8 -42 -10 -61 -14 -209 -94 -252 -137 -9 -9 -23 -21 -31 -25 -23 -14 -135
-152 -156 -192 -11 -21 -29 -54 -40 -74 -12 -21 -19 -38 -16 -38 4 0 2 -6 -3
-12 -50 -64 -86 -365 -59 -488 3 -14 9 -41 12 -60 6 -36 49 -165 62 -184 4 -6
7 -14 7 -17 0 -3 20 -37 44 -75 77 -120 199 -229 326 -292 83 -41 198 -77 214
-67 5 3 13 1 16 -5 10 -16 230 -11 312 7 98 21 95 20 126 32 61 24 119 53 164
83 49 32 193 173 193 188 0 5 6 15 14 22 20 20 91 165 110 224 32 99 38 142
39 264 1 97 -3 150 -18 222 -8 40 -56 171 -67 186 -6 6 -8 12 -4 12 13 0 -93
147 -140 195 -55 56 -141 121 -194 147 -41 20 -143 64 -150 65 -3 1 -23 6 -45
11 -52 14 -97 21 -165 28 -30 2 -69 7 -87 9 -17 2 -33 2 -35 0z"/>
</g>
</svg>
